# xmcd CD database file
#
# Track frame offsets:
#	150
#	24910
#	43642
#	66405
#	80509
#	99589
#	124315
#	148838
#	169307
#	198023
#	222868
#
# Disc length: 3314 seconds
#
# Revision: 1
# Processed by: cddbd v1.4PL0 Copyright (c) Steve Scherf et al.
# Submitted via: CDex 1.50beta10
#
DISCID=9d0cf00b
DTITLE=Gatz 'N' Sax - Yours Sincerely
DYEAR=1993
DGENRE=Jazz
TTITLE0=Mists
TTITLE1=Midnight At The Oasis
TTITLE2=If You Ain't Got The Heart
TTITLE3=Choo Choo Cha Boogie
TTITLE4=More Than Words
TTITLE5=Wonderful World
TTITLE6=Old Man
TTITLE7=Autumn Rise
TTITLE8=Message In A Bottle
TTITLE9=Make It So
TTITLE10=Stormy Monday Blues - Stormy No More (medley)
EXTD=YEAR: 1993
EXTT0=
EXTT1=
EXTT2=
EXTT3=
EXTT4=
EXTT5=
EXTT6=
EXTT7=
EXTT8=
EXTT9=
EXTT10=
PLAYORDER=
